<svg xmlns="http://www.w3.org/2000/svg" xmlns:xlink="http://www.w3.org/1999/xlink">
  <symbol id="overview" viewBox="0 0 24 24"><rect x="3" y="3" width="7.5" height="7.5" rx="1.6"/><rect x="13.5" y="3" width="7.5" height="7.5" rx="1.6"/><rect x="3" y="13.5" width="7.5" height="7.5" rx="1.6"/><rect x="13.5" y="13.5" width="7.5" height="7.5" rx="1.6"/></symbol>
  <symbol id="person" viewBox="0 0 24 24"><circle cx="12" cy="7.5" r="3.25"/><path d="M5.25 20v-1.8a6.75 6.75 0 0 1 13.5 0V20z"/></symbol>
  <symbol id="accounts" viewBox="0 0 24 24"><rect x="3" y="5" width="18" height="14" rx="2.5"/><path d="M3 9.5h18M7 15h4"/></symbol>
  <symbol id="receipt" viewBox="0 0 24 24"><path d="M5 3.5h14v17l-3-1.5-4 1.5-4-1.5-3 1.5zM8.5 9h7M8.5 13h7"/></symbol>
  <symbol id="topup" viewBox="0 0 24 24"><circle cx="12" cy="12" r="9"/><path d="M12 16V8m0 0-3 3m3-3 3 3"/></symbol>
  <symbol id="chart" viewBox="0 0 24 24"><path d="M4 20h16M6 16v-5m6 5V5m6 11V9"/></symbol>
  <symbol id="people" viewBox="0 0 24 24"><circle cx="9" cy="8" r="3"/><path d="M3.5 19v-1.5a5.5 5.5 0 0 1 11 0V19zM17 5.4a2.8 2.8 0 0 1 0 5.2M17 13a5 5 0 0 1 3.5 4.8V19h-3"/></symbol>
  <symbol id="workflow" viewBox="0 0 24 24"><rect x="3" y="4" width="5" height="5" rx="1"/><rect x="16" y="4" width="5" height="5" rx="1"/><rect x="16" y="16" width="5" height="5" rx="1"/><path d="M8 6.5h8M18.5 9v7M3 17h9m-3-3 3 3-3 3"/></symbol>
  <symbol id="finance" viewBox="0 0 24 24"><rect x="3" y="6" width="18" height="14" rx="2.5"/><path d="M3 10h18M7 6V4.5M17 6V4.5"/><circle cx="16.5" cy="15" r="1.5"/></symbol>
  <symbol id="academy" viewBox="0 0 24 24"><rect x="3" y="5" width="18" height="14" rx="2.5"/><path d="m10 9 5 3-5 3z"/></symbol>
  <symbol id="payment" viewBox="0 0 24 24"><rect x="3" y="5" width="18" height="14" rx="2.5"/><path d="M3 10h18M7 15h4"/></symbol>
  <symbol id="activity" viewBox="0 0 24 24"><path d="M7 5h13M7 12h13M7 19h13"/><circle cx="3.5" cy="5" r=".7" fill="currentColor" stroke="none"/><circle cx="3.5" cy="12" r=".7" fill="currentColor" stroke="none"/><circle cx="3.5" cy="19" r=".7" fill="currentColor" stroke="none"/></symbol>
  <symbol id="menu" viewBox="0 0 24 24"><path d="M4 6h16M4 12h16M4 18h16"/></symbol>
  <symbol id="moon" viewBox="0 0 24 24"><path d="M20.1 15.7A8.5 8.5 0 0 1 8.3 3.9a8.5 8.5 0 1 0 11.8 11.8z"/></symbol>
  <symbol id="sun" viewBox="0 0 24 24"><circle cx="12" cy="12" r="4"/><path d="M12 2v2m0 16v2M2 12h2m16 0h2M4.9 4.9l1.4 1.4m11.4 11.4 1.4 1.4m0-14.2-1.4 1.4M6.3 17.7l-1.4 1.4"/></symbol>
  <symbol id="close" viewBox="0 0 24 24"><path d="M5 5 19 19M19 5 5 19"/></symbol>
  <symbol id="copy" viewBox="0 0 24 24"><rect x="8" y="8" width="12" height="12" rx="2"/><path d="M16 8V6a2 2 0 0 0-2-2H6a2 2 0 0 0-2 2v8a2 2 0 0 0 2 2h2"/></symbol>
  <symbol id="clock" viewBox="0 0 24 24"><circle cx="12" cy="12" r="9"/><path d="M12 7v5l3.5 2"/></symbol>
  <symbol id="check" viewBox="0 0 24 24"><circle cx="12" cy="12" r="9"/><path d="m8 12 2.5 2.5L16 9"/></symbol>
  <symbol id="warning" viewBox="0 0 24 24"><path d="M10.1 4.6a2.2 2.2 0 0 1 3.8 0l7.2 12.5a2.2 2.2 0 0 1-1.9 3.3H4.8a2.2 2.2 0 0 1-1.9-3.3zM12 9v5m0 3h.01"/></symbol>
  <symbol id="file" viewBox="0 0 24 24"><path d="M5 3h9l5 5v13H5zM14 3v5h5M8 13h8M8 17h6"/></symbol>
  <symbol id="trend" viewBox="0 0 24 24"><path d="m4 17 6-6 4 3 6-7M15 7h5v5"/></symbol>
  <symbol id="spark" viewBox="0 0 24 24"><path d="m12 2 1.8 7.2L21 11l-7.2 1.8L12 20l-1.8-7.2L3 11l7.2-1.8z"/></symbol>
  <symbol id="dollar" viewBox="0 0 24 24"><circle cx="12" cy="12" r="9"/><path d="M15.5 8.5c-.8-.9-2-1.5-3.5-1.5-2 0-3.5 1-3.5 2.6 0 3.8 7 1.3 7 5.1 0 1.6-1.5 2.6-3.5 2.6-1.5 0-2.8-.6-3.5-1.5M12 5.5v13"/></symbol>
  <symbol id="archive" viewBox="0 0 24 24"><rect x="3" y="4" width="18" height="5" rx="1.5"/><path d="M5 9v10a2 2 0 0 0 2 2h10a2 2 0 0 0 2-2V9M10 13h4"/></symbol>
  <symbol id="delivery" viewBox="0 0 24 24"><path d="M3 7h11v11H3zM14 10h3l4 4v4h-7z"/><circle cx="7.5" cy="19" r="1.5"/><circle cx="17.5" cy="19" r="1.5"/></symbol>
  <symbol id="replacement" viewBox="0 0 24 24"><path d="M19 7a8 8 0 0 0-13.5 1.4L3 11m0-6v6h6M5 17a8 8 0 0 0 13.5-1.4L21 13m0 6v-6h-6"/></symbol>
  <symbol id="download" viewBox="0 0 24 24"><path d="M12 3v12m-4-4 4 4 4-4M4 16v4a1 1 0 0 0 1 1h14a1 1 0 0 0 1-1v-4"/></symbol>
</svg>
